<?xml version="1.0" standalone="no"?>
<!DOCTYPE svg PUBLIC "-//W3C//DTD SVG 20010904//EN"
 "http://www.w3.org/TR/2001/REC-SVG-20010904/DTD/svg10.dtd">
<svg version="1.0" xmlns="http://www.w3.org/2000/svg"
 width="143.000000pt" height="40.000000pt" viewBox="0 0 143.000000 40.000000"
 preserveAspectRatio="xMidYMid meet">

<g transform="translate(0.000000,40.000000) scale(0.100000,-0.100000)"
fill="#000000" stroke="none">
<path d="M0 200 l0 -200 715 0 715 0 0 200 0 200 -715 0 -715 0 0 -200z m180
111 c0 -10 -11 -28 -26 -41 -19 -19 -24 -31 -19 -49 6 -25 6 -25 -14 -7 -28
25 -26 37 9 71 17 16 30 35 30 42 0 8 5 11 10 8 6 -3 10 -14 10 -24z m1 -55
c-8 -9 -10 -27 -6 -45 3 -16 2 -32 -4 -35 -5 -3 -12 13 -16 36 -6 34 -4 44 11
55 22 16 31 9 15 -11z m234 -47 c4 -6 0 -9 -10 -7 -26 4 -30 -18 -5 -25 16 -4
21 -12 18 -29 -3 -26 -34 -36 -52 -18 -8 9 -6 11 11 6 21 -7 47 14 26 21 -27
9 -46 31 -40 47 7 18 42 22 52 5z m57 -53 c-2 -20 -8 -36 -12 -36 -10 0 -19
58 -12 83 9 34 29 -6 24 -47z m188 32 c1 -27 2 -30 11 -15 5 9 15 17 21 17 6
0 5 -6 -3 -16 -10 -12 -10 -20 -1 -35 7 -10 8 -19 3 -19 -6 0 -15 8 -20 18
-10 16 -10 16 -11 0 0 -10 -4 -18 -10 -18 -5 0 -10 23 -10 50 0 28 5 50 10 50
6 0 10 -15 10 -32z m97 -46 c-2 -15 -4 -2 -4 28 0 30 2 43 4 28 2 -16 2 -40 0
-56z m173 28 c0 -46 -2 -50 -24 -50 -53 0 -59 61 -7 68 15 2 21 9 17 18 -3 8
-1 14 4 14 6 0 10 -22 10 -50z m193 20 c8 0 7 -4 -1 -12 -7 -7 -13 -23 -13
-37 l-2 -26 -4 25 c-3 14 -10 31 -15 38 -7 8 -7 12 1 12 6 0 12 8 12 18 1 16
2 16 6 0 2 -10 10 -18 16 -18z m97 20 c0 -5 -2 -10 -4 -10 -3 0 -8 5 -11 10
-3 6 -1 10 4 10 6 0 11 -4 11 -10z m-1065 -51 c56 0 82 4 90 14 10 14 35 12
35 -3 0 -19 -113 -33 -178 -22 -71 12 -84 19 -62 32 9 6 18 3 25 -6 8 -11 31
-15 90 -15z m405 -5 c0 -32 -2 -35 -26 -32 -56 6 -53 68 2 68 21 0 24 -5 24
-36z m59 29 c-9 -2 -21 -18 -27 -36 l-10 -32 -1 38 c-1 34 1 37 27 36 15 -1
20 -3 11 -6z m219 -6 c14 -11 17 -57 3 -57 -5 0 -11 11 -13 25 -4 33 -22 33
-26 0 -2 -14 -8 -25 -13 -25 -9 0 -13 53 -4 62 9 8 39 6 53 -5z m137 -42 c6 0
11 12 13 28 4 32 22 37 22 5 0 -33 -14 -51 -36 -46 -14 2 -19 13 -21 38 -1 34
-1 34 5 5 4 -16 12 -30 17 -30z m91 43 c5 -8 2 -9 -9 -5 -22 8 -22 -2 0 -18 9
-7 13 -17 9 -23 -8 -14 -46 -16 -46 -3 0 5 10 7 23 4 l22 -5 -24 20 c-13 11
-21 24 -17 31 9 14 33 14 42 -1z m112 1 c-10 -5 -18 -21 -18 -34 0 -14 -4 -25
-10 -25 -5 0 -10 16 -10 35 0 32 3 35 28 35 23 -1 24 -2 10 -11z m42 -24 c0
-19 -4 -35 -10 -35 -5 0 -10 16 -10 35 0 19 5 35 10 35 6 0 10 -16 10 -35z
m64 29 c26 -10 19 -34 -10 -34 -15 0 -23 -4 -19 -11 4 -6 13 -8 21 -5 8 3 14
1 14 -4 0 -15 -36 -12 -49 4 -9 11 -10 20 -1 35 11 22 19 25 44 15z m76 -4 c0
-5 -7 -7 -15 -4 -8 4 -15 2 -15 -4 0 -5 7 -12 15 -16 8 -3 15 -12 15 -21 0
-17 -35 -21 -46 -4 -4 8 1 9 17 4 l24 -6 -24 19 c-13 11 -21 24 -17 31 9 13
46 15 46 1z m-1260 -63 c10 -4 8 -6 -7 -6 -12 -1 -24 3 -27 8 -7 11 6 24 13
13 3 -5 13 -12 21 -15z m150 3 c-8 -5 -24 -9 -35 -9 l-20 0 20 9 c11 5 27 9
35 9 13 1 13 0 0 -9z m-24 -42 c-9 -5 -22 -7 -29 -4 -7 2 -4 5 6 5 9 1 17 6
17 12 0 5 5 7 11 3 8 -5 6 -10 -5 -16z m-116 2 c13 -8 13 -10 -2 -10 -9 0 -20
5 -23 10 -8 13 5 13 25 0z"/>
<path d="M884 165 c-9 -23 10 -40 25 -22 9 11 8 17 -4 27 -12 10 -16 9 -21 -5z"/>
<path d="M514 166 c-9 -23 7 -38 26 -26 13 8 13 11 -2 26 -16 17 -18 17 -24 0z"/>
<path d="M1255 170 c-3 -5 1 -10 9 -10 9 0 16 5 16 10 0 6 -4 10 -9 10 -6 0
-13 -4 -16 -10z"/>
</g>
</svg>
